Coordinates
version=1
nRows=4
nColumns=40
inDegrees=yes

Units are S.I. units (second, meters, Newtons, ...)
If the header above contains a line with 'inDegrees', this indicates whether rotational values are in degrees (yes) or radians (no).

endheader
time	pelvis_tilt	pelvis_list	pelvis_rotation	pelvis_tx	pelvis_ty	pelvis_tz	hip_flexion_r	hip_adduction_r	hip_rotation_r	knee_angle_r	knee_angle_r_beta	ankle_angle_r	subtalar_angle_r	mtp_angle_r	hip_flexion_l	hip_adduction_l	hip_rotation_l	knee_angle_l	knee_angle_l_beta	ankle_angle_l	subtalar_angle_l	mtp_angle_l	lumbar_extension	lumbar_bending	lumbar_rotation	arm_flex_r	arm_add_r	arm_rot_r	elbow_flex_r	pro_sup_r	wrist_flex_r	wrist_dev_r	arm_flex_l	arm_add_l	arm_rot_l	elbow_flex_l	pro_sup_l	wrist_flex_l	wrist_dev_l
      5.57500000000000017764	     12.68304179709091350503	     -0.13540563742976552408	   -175.35827902519102394763	      0.36152076675191063826	      0.78041473432413233091	     -0.97821912231609431387	     26.27847375121794826214	    -36.21020665365553270476	    -38.56331060594208537395	     13.68897109731994810033	      0.23891761685857421105	    -20.31592873531101872686	      0.00000000000000000000	      0.00000000000000000000	     32.78398579665147138940	    -29.32822513369589145782	    -28.35672750554138232815	     11.54539799829647783724	      0.20150520852343620226	    -21.16637414308397424634	      0.00000000000000000000	      0.00000000000000000000	    -22.40613186483586360964	      2.96703028853354755512	      2.02752097510297657479	     31.47176872768350719412	     -9.69189135659897083031	     44.21434660181786568955	      1.44390821555185921987	     71.24340610554054364911	      0.00000000000000000000	      0.00000000000000000000	     24.87823191434297598335	     -2.78871161376220211281	     58.83169874733437154646	      1.11095500845684647118	      5.03891539867477966652	      0.00000000000000000000	      0.00000000000000000000
      5.58000000000000007105	     12.40593386492379757158	     -0.21268894885077488377	   -175.38362451333202329806	      0.36002713467412944537	      0.78090480579001975148	     -0.97838121379335241112	     25.73190200149477036007	    -36.12262484695675368584	    -38.56815830950066725791	     13.37862527924434985493	      0.23350106051335969837	    -20.25823720130559024710	      0.00000000000000000000	      0.00000000000000000000	     32.22215123746716614050	    -29.26596291846690789384	    -28.60000464946059395288	     11.34699818448256891656	      0.19804247853703976778	    -21.11184152708989358871	      0.00000000000000000000	      0.00000000000000000000	    -22.10466463791069813283	      2.81371614392227842316	      2.47955404328752049281	     31.01896781015677007076	     -9.93269358647481936941	     41.95539396600668169413	      1.46885537413740063784	     73.83453057480242875954	      0.00000000000000000000	      0.00000000000000000000	     24.37926544345627277721	     -2.90181175578616556976	     62.27132816754851774022	      1.08911138775670668366	      4.69992113950721979165	      0.00000000000000000000	      0.00000000000000000000
      5.58499999999999996447	     12.24963085611407187514	     -0.29880932029866902333	   -175.49927979968771296626	      0.35869494261345280517	      0.78117673674182275256	     -0.97863055582760694051	     25.50671828394330020728	    -36.12489367138010720737	    -38.61822695674529626331	     13.31894352025497596514	      0.23245941731561339805	    -20.16623087711829853674	      0.00000000000000000000	      0.00000000000000000000	     31.76699033747495803937	    -29.23607285006732325883	    -28.88478705972622506692	     11.18548536143567595502	      0.19522354799068050712	    -21.04517866978723716898	      0.00000000000000000000	      0.00000000000000000000	    -21.68872175845020322527	      2.65674933057231799083	      2.53747140018472849832	     30.66163374748940739778	     -9.92420418391422742843	     42.23856815804586517515	      1.46949910745724343641	     75.09813627901118593400	      0.00000000000000000000	      0.00000000000000000000	     24.03777457138366457912	     -2.99838227254339750871	     62.29451726014369938866	      1.09265780696588321597	      4.76569098209026176249	      0.00000000000000000000	      0.00000000000000000000
      5.58999999999999985789	     12.04965515946912546497	     -0.34111840540275328859	   -175.43293825020489862254	      0.35721798983510549830	      0.78150078665879529893	     -0.97860838185695897540	     24.96050599682493853493	    -36.06812320060446097614	    -38.72187234018096546606	     13.00288238593824097222	      0.22694310988419832964	    -20.16974002718841418869	      0.00000000000000000000	      0.00000000000000000000	     31.39454360515350828109	    -29.16163514006741763751	    -28.94978037695540962204	     11.06071010732606119120	      0.19304580898145515255	    -21.01250938684075464380	      0.00000000000000000000	      0.00000000000000000000	    -21.31692321596610995016	      2.60801464577673414169	      2.42604668943552059801	     30.27749890789794307011	     -9.83656945326103659966	     42.17216294537536924736	      1.47146481773354143030	     74.18695208267541829628	      0.00000000000000000000	      0.00000000000000000000	     23.88496736737968006992	     -3.01970914476451435249	     60.76767863155308901923	      1.08664364282317316146	      5.59668580954675132233	      0.00000000000000000000	      0.00000000000000000000
